# xmcd
#
# Track frame offsets:
#	150
#	12589
#	22844
#	33685
#	44104
#	56169
#	67253
#	77459
#	89332
#	96995
#	104816
#	117269
#
# Disc length: 1699 seconds
#
# Revision: 1
# Processed by: cddbd v1.5.2PL0 Copyright (c) Steve Scherf et al.
# Submitted via: audiograbber 1.83.01
#
DISCID=ab06a10c
DTITLE=Johnny Cash - Love Songs
DYEAR=2008
DGENRE=Country
TTITLE0=I Walk The Line
TTITLE1=The Ways of a Woman in Love
TTITLE2=Train of Love
TTITLE3=There You Go
TTITLE4=You're the Nearest Thing to Heaven
TTITLE5=I Love You Because
TTITLE6=Straight A's in Love
TTITLE7=So Doggone Lonesome
TTITLE8=Come in Stranger
TTITLE9=Hey Good Lookin'
TTITLE10=Give My Love to Rose
TTITLE11=I Could Never be Ashamed of You
EXTD=
EXTT0=
EXTT1=
EXTT2=
EXTT3=
EXTT4=
EXTT5=
EXTT6=
EXTT7=
EXTT8=
EXTT9=
EXTT10=
EXTT11=
PLAYORDER=
